<?xml version="1.0" encoding="UTF-8"?>
<!DOCTYPE svg PUBLIC "-//W3C//DTD SVG 1.1//EN" "http://www.w3.org/Graphics/SVG/1.1/DTD/svg11.dtd">
<!-- Creator: CorelDRAW -->
<svg xmlns="http://www.w3.org/2000/svg" xml:space="preserve" width="211.667mm" height="211.667mm" version="1.1" style="shape-rendering:geometricPrecision; text-rendering:geometricPrecision; image-rendering:optimizeQuality; fill-rule:evenodd; clip-rule:evenodd"
viewBox="0 0 21166.66 21166.66"
 xmlns:xlink="http://www.w3.org/1999/xlink"
 xmlns:xodm="http://www.corel.com/coreldraw/odm/2003">
 <defs>
  <style type="text/css">
   <![CDATA[
    .fil0 {fill:white}
    .fil2 {fill:black;fill-rule:nonzero}
    .fil1 {fill:white;fill-rule:nonzero}
   ]]>
  </style>
 </defs>
 <g id="Camada_x0020_1">
  <metadata id="CorelCorpID_0Corel-Layer"/>
  <g id="_2538535148960">
   <path class="fil0" d="M7491.54 8433.51l0 5662.2c0,20 3.54,20.41 7.4,37.01 82.61,19.25 972.18,7.4 1132.44,7.4 37.79,0 30.16,-43.88 29.73,-81.29 -6.56,-569.81 -0.12,-1140.07 -0.12,-1709.88 0,-606.94 0,-1213.87 0,-1820.79 31.04,8.29 37.88,35.53 54.94,63.48 15.58,25.51 29.75,48.06 46.56,71.87l769.6 1154.8c102.82,170.22 311.36,460.56 432.02,648.61l194.9 293.61c17.58,26.7 31.48,53.51 63.71,62.11 17.57,-16.66 11.2,-12.45 25.66,-33.54l284.81 -425.76c8.32,-12.99 14.16,-24.04 22.5,-36.7l1011.15 -1520.19c33.55,-50.33 63.35,-89.91 94.96,-141.89 21.72,-35.72 70.82,-126.51 107.85,-136.4l0 3412.12c0,70.01 -16.98,199.84 29.6,199.84l1080.64 0c24.94,0 51.8,-13.07 51.8,-37l0 -5677.01c0,-32.1 -11.77,-22.85 -14.8,-59.21l-1139.84 0c-2.6,31.28 -1.3,16.63 -18.8,40.42l-121.9 181.54c-10.69,15.02 -13.36,16.46 -24.55,34.68l-124.41 186.45c-9.12,13.24 -13.41,21.76 -23.32,35.89l-121.36 182.1c-11.08,19.26 -13.71,19.05 -24.05,35.17 -13.29,20.71 -12.75,19.52 -27.87,38.75l-561.37 837.52c-13.91,21.02 -11.7,20.09 -27.34,39.28 -46.61,57.19 -188.45,280.02 -244.06,362.87 -17.95,26.73 -33.45,49.97 -50.34,75.49 -8.33,12.59 -14.28,24.3 -22.42,36.79l-49.41 69.01c-30.48,43.2 -93.13,159.63 -127.93,182.94 -36.17,-31.44 -112.06,-161.43 -145.98,-209.3 -11.79,-16.66 -11.74,-19.54 -21.89,-37.32l-207.92 -310.2c-8.33,-10.93 -8.1,-8.78 -16.1,-20.9 -39.64,-60.04 -76.08,-128.25 -120.56,-182.91 -45.61,-56.06 -78.69,-124.39 -119.92,-183.54l-245.17 -361.76c-46.83,-71.69 -103.12,-143.21 -143.88,-218.8 -48.02,-89.08 -138.19,-199.82 -194.67,-293.84 -13.45,-22.4 -10.83,-15.9 -25.13,-34.08l-293.29 -439.46c-14.26,-18.74 -17.43,-17.99 -19.82,-46.79l-1154.65 0c-0.74,33.47 -7.4,29.41 -7.4,66.61z"/>
   <path class="fil0" d="M13620.04 9536.34c0,39.37 110.14,22.21 140.63,22.21l1835.59 0c61.94,0 103.36,4.39 155.46,7.38 59.18,3.4 85.71,17.49 147.32,22.91 76.97,6.77 79.52,20.01 137.08,33.16 43.41,9.93 119.77,29.67 158.21,49.04 10.35,5.22 15.33,10.59 28.94,15.46l226.12 106.94c22.47,11.73 26.21,18.76 49.87,31.56 69.07,37.41 134.51,86.91 194.09,138.98 61.01,53.34 119.65,105.87 170.91,169.56 49.57,61.58 101.36,124.68 140.68,192.4l136.85 277.63 63.52 188.14c6.35,23.97 5.88,47.36 11.6,69.81 32.13,126.05 22.15,86.38 37.3,221.76 14.88,132.9 18.17,257.61 -1.32,390.96 -6.25,42.76 -7.02,100.71 -16.57,146.26 -4.73,22.6 -13.76,39.86 -19.41,62.01 -5.74,22.51 -5.21,45.81 -11.56,69.85l-65.48 186.17c-36.89,98.19 -149.24,277.97 -217.01,360.32 -25.32,30.77 -45.89,61.33 -73.77,89.06l-122.15 122.11c-140.17,129.66 -327.95,254.02 -506.92,322.05l-187.81 63.84c-28.69,10.26 -37.3,5.42 -70.25,11.16 -21.9,3.82 -43.17,10.62 -65.11,16.32 -127.72,33.26 -813.62,17.68 -974.13,17.68 -406.21,0 -831.06,-8.02 -1236.53,-0.47 -40.6,0.76 -42.7,6.97 -66.15,22.67l0 1169.45c16.6,3.87 17.02,7.4 37.01,7.4l2168.66 0c47.96,0 330.84,-37.71 364.73,-49.76 39.11,-13.9 38.59,-13.05 86.33,-17.28 36.25,-3.22 49.28,-14.32 79.72,-23.91 28.77,-9.06 58.16,-8.01 85.64,-17.99l153.26 -53.97c62.26,-17.18 127.73,-46.54 187.07,-71.99l303.85 -162.45c22.77,-12.63 42.76,-26.21 63.88,-39.74l238.95 -175.54c112.47,-91.62 223.11,-192.37 322.22,-299.52l188.98 -225.5c67.62,-90.78 130.7,-180.65 187.93,-278.37l110.28 -200.59c26.35,-47.33 41.41,-101.35 63.79,-143.44 30.67,-57.67 47.74,-128.13 72.41,-186.65l45.5 -161.75c9.51,-57.7 24.49,-82.37 37.07,-170.17 9.47,-66.16 28.25,-109.32 28.39,-178.85l19.51 -84.12c6.24,-21.75 9.36,-667.4 -4.31,-700.54 -22.55,-54.68 -13.78,-131.88 -29.65,-192.39 -12.07,-46.05 -20.3,-125.95 -36.22,-171.03 -13.45,-38.13 -9.67,-42.17 -18.87,-84.74 -6.7,-30.96 -18.54,-43.55 -25.92,-77.71l-215.58 -509.77 -77.7 -129.55c-41.94,-62.54 -79.73,-125.65 -126.98,-183.88 -16.82,-20.71 -26.51,-37.99 -43.39,-60.24 -15.59,-20.56 -29.81,-39.08 -46.01,-57.61l-248.09 -270.02c-24.06,-20.12 -32.69,-25.71 -55.19,-48.42 -17.8,-17.97 -33.59,-35.95 -52.55,-51.08 -22.38,-17.87 -34.01,-30.33 -56.01,-47.62 -21.87,-17.2 -36.98,-28.75 -57.82,-45.8 -131.01,-107.2 -153.38,-109.85 -273.24,-193.06 -73.48,-51.02 -153.65,-89.4 -233.33,-129.35l-70.92 -32.7c-21.48,-9.25 -11.75,-9.24 -33.23,-18.58l-262.81 -99.87c-40.56,-10.92 -45.31,-9.29 -79.72,-23.89 -34.33,-14.56 -46.01,-9.33 -85.58,-18.05 -30.8,-6.79 -45.45,-19.28 -79.03,-24.59l-174.33 -32.91c-40.65,-5.76 -90.43,1.09 -129.84,-18.19 -1.51,-0.73 -3.19,-1.97 -4.72,-2.67 -40.73,-18.66 -602.21,-7.37 -666.19,-7.37 -552.64,0 -1105.3,0 -1657.95,0l0 1169.44z"/>
   <path class="fil0" d="M5574.52 12384.27l0 1828.19 1221.26 0c3.87,-16.6 7.4,-17.02 7.4,-37.01l0 -2960.63c0,-87.72 -103.06,-66.62 -162.83,-66.61l-1606.14 0c-109.79,0 -367.67,9.05 -443.5,-15.41 -32.27,-10.41 -45.23,-15.61 -86.5,-24.52 -56.54,-12.2 -180.8,-77.08 -230.34,-117.53 -30.62,-25.01 -63.86,-51.49 -87.74,-82.49 -43.81,-56.88 -80.17,-109.79 -114.09,-174.57 -5.55,-10.61 -13.19,-22.09 -18.56,-33.26 -48.49,-101.03 -77.7,-222.37 -77.7,-336.79 0,-46.75 4.07,-65.72 7.1,-103.93 7.83,-99.1 71.99,-239.96 126.56,-324.93 43.37,-67.54 106.77,-126.5 167.87,-180.01 52.78,-46.21 161.26,-99.44 226.92,-113.55 41.41,-8.9 51.91,-19.88 90.1,-28.32 126.61,-27.99 289.09,-19.02 439.88,-19.02l1598.73 0c78.19,0 170.24,18.93 170.24,-59.21l0 -1080.64c0,-33.31 -14,-74.01 -44.41,-74.01l-2124.24 0c-47.18,0 -77.26,7.14 -116.92,16.31 -52.39,12.1 -111.26,15.57 -165.21,34.64 -34.72,12.28 -68.29,11.38 -106.83,26.39 -62.02,24.15 -129.38,23.5 -210.65,63.22l-317.68 156.02c-85.93,48.84 -176.13,112.29 -249.26,180.03l-56.57 54.45c-25.23,25.27 -45.07,45.08 -70.31,70.31 -138.88,138.89 -256.93,295.74 -338.11,476.07l-45.51 87.72c-25.95,46.3 -81.69,205.34 -96.83,236.24l-81.95 391.76c-9.44,72.46 -6.74,440.23 11.12,517.84 4.69,20.34 9.75,31.97 13.51,53.11 3.91,22.01 5.71,50.84 8.08,65.93l40.5 159.35c25.48,62.2 45.31,128.97 75.32,191.13l45.01 95.62c9.88,22.09 12.05,24.33 23.39,43.21l214.71 325.62c49.13,71.81 166.66,179.28 234.31,239.39 79.78,70.9 165.44,130.89 253.89,190.2l107.04 63.2c17.48,9.07 24.44,15.66 42.39,24.23 21.5,10.25 24.55,9.84 44.95,21.66 45.93,26.61 94.53,37.66 142.02,57.82 112.31,47.67 116.98,38.21 210.09,63.77 24.46,6.72 25.46,11.31 48.71,17.91l229.15 44.7c122.5,13.07 121.53,14.19 252.26,14.19l748.2 -0.64c27.59,-0.21 51.17,-5.7 51.17,22.85z"/>
  </g>
  <g id="_2538535149056">
   <path class="fil1" d="M5788.24 7682.12c-63.29,0 -121.8,-23.97 -166.87,-67.13 -46.04,-45.08 -71.93,-104.54 -73.85,-168.79 -0.96,-63.3 22.06,-124.68 68.09,-170.71 44.12,-46.04 103.58,-71.93 167.84,-73.85 64.25,-0.96 124.67,23.02 170.71,68.09 23.02,21.1 23.98,58.5 1.92,80.56 -22.06,23.02 -58.5,23.98 -81.52,1.92 -23.98,-23.02 -55.63,-35.49 -89.19,-35.49 -33.57,0 -64.26,14.39 -88.24,38.37 -22.05,23.97 -35.48,55.62 -34.52,89.19 0,32.61 14.38,65.21 38.36,87.27 23.98,23.98 55.62,36.45 88.23,35.49 31.65,0 61.38,-12.47 84.4,-33.57 22.06,-22.06 59.46,-20.14 80.56,2.88 22.06,23.01 20.14,59.46 -2.88,81.52 -43.16,40.28 -99.74,63.29 -159.2,64.25l-3.84 0zm649.28 -411.43c-43.15,-40.28 -98.78,-63.3 -158.24,-63.3 -44.12,0 -86.31,13.43 -121.8,35.49 -7.67,-23.02 -28.77,-39.32 -54.66,-39.32 -31.65,0 -57.55,24.93 -57.55,56.58l0 367.32c0,31.65 25.9,57.54 57.55,57.54 31.64,0 57.54,-25.89 57.54,-57.54l0 -181.26c0,-68.1 53.7,-123.72 118.92,-123.72 29.73,0 58.5,11.51 79.6,31.65 23.98,22.06 59.46,20.14 81.52,-2.88 22.06,-23.02 20.14,-59.46 -2.88,-80.56zm492.96 171.67c3.84,-9.59 7.67,-19.18 7.67,-27.81 1.92,-31.65 -15.34,-67.14 -30.69,-93.99 -34.52,-57.54 -90.15,-97.82 -155.36,-110.29 -14.39,-2.88 -27.82,-3.84 -42.2,-3.84 -133.31,0 -239.76,109.34 -239.76,240.73 0,133.3 106.45,240.72 239.76,240.72 54.66,0 128.51,-17.27 181.26,-68.1 23.02,-22.05 23.97,-59.46 0.96,-81.51 -22.06,-23.02 -58.5,-23.02 -81.52,-0.96 -24.94,23.97 -70.01,36.44 -100.7,36.44 -59.46,0 -108.37,-42.2 -121.8,-96.86l295.39 0c23.01,0 39.32,-16.31 46.99,-34.53zm-220.58 -119.88c43.16,0 78.64,21.1 97.82,57.54l-203.32 0c23.02,-35.48 61.38,-57.54 105.5,-57.54zm691.48 -117.01c-31.65,0 -50.83,24.94 -50.83,54.67l0 4.8c-41.24,-33.57 -89.2,-55.63 -146.74,-55.63 -128.51,0 -232.09,104.54 -232.09,232.09 0,127.55 103.58,231.13 232.09,231.13 57.54,0 105.5,-21.1 146.74,-56.58l0 11.51c0,29.73 19.18,54.66 50.83,54.66 31.64,0 55.62,-24.93 55.62,-54.66l0 -367.32c0,-29.73 -23.98,-54.67 -55.62,-54.67zm-197.57 354.85c-66.17,0 -120.84,-52.74 -120.84,-118.92 0,-66.17 54.67,-119.88 120.84,-119.88 65.22,0 119.88,53.71 119.88,119.88 0,66.18 -54.66,118.92 -119.88,118.92zm541.87 6.72c-6.72,0 -15.35,0.96 -20.14,-3.84 -6.72,-5.75 -4.8,-17.26 -6.72,-24.93l0 -228.26 31.65 0c31.65,0 57.54,-25.89 57.54,-57.54 0,-31.65 -25.89,-57.54 -57.54,-57.54l-31.65 0 0 -183.18c0,-31.65 -25.89,-57.55 -57.54,-57.55 -31.65,0 -57.54,25.9 -57.54,57.55l0 183.18 -41.24 0c-31.65,0 -57.55,25.89 -57.55,57.54 0,31.65 25.9,57.54 57.55,57.54l41.24 0 0 241.68c0,29.73 13.42,64.26 32.6,86.32 22.06,24.93 52.75,38.36 84.4,43.15 8.63,0.96 16.3,0.96 24.94,0.96 31.64,0 57.54,-24.93 57.54,-57.54 0,-31.65 -25.9,-57.54 -57.54,-57.54zm194.68 -445c-33.56,0 -60.42,-26.86 -60.42,-58.5l0 -4.8c0,-33.57 26.86,-59.46 60.42,-59.46 31.65,0 58.5,25.89 58.5,59.46l0 4.8c0,31.64 -26.85,58.5 -58.5,58.5zm0 562.96c-33.56,0 -60.42,-26.85 -60.42,-59.46l0 -370.19c0,-32.61 26.86,-58.51 60.42,-58.51 31.65,0 58.5,25.9 58.5,58.51l0 370.19c0,32.61 -26.85,59.46 -58.5,59.46zm375.95 -1.92c-132.35,0 -240.72,-107.41 -240.72,-240.72 0,-132.35 108.37,-240.72 240.72,-240.72 132.35,0 240.72,108.37 241.68,241.68 -0.96,132.35 -109.33,239.76 -241.68,239.76zm0 -363.48c-68.09,0 -122.76,54.67 -122.76,122.76 0,68.09 54.67,122.76 122.76,122.76 68.1,0 122.76,-54.67 122.76,-122.76 0,-68.09 -54.66,-122.76 -122.76,-122.76zm537.08 -113.17c-43.16,0 -82.48,12.47 -117.01,34.53 -7.67,-23.02 -28.77,-39.32 -53.7,-39.32 -31.65,0 -57.55,25.89 -57.55,57.54l0 366.36c0,31.65 25.9,57.54 57.55,57.54 31.64,0 57.54,-25.89 57.54,-57.54l0 -163.04c0,-66.17 38.36,-140.98 113.17,-140.98 60.42,0 110.29,54.67 110.29,122.76l0 181.26c0,31.65 24.93,57.54 57.54,57.54 31.65,0 56.58,-25.89 56.58,-57.54l0 -181.26c0,-131.39 -100.7,-237.85 -224.41,-237.85zm970.56 -0.96c-31.65,0 -50.83,24.94 -50.83,54.67l0 4.8c-41.24,-33.57 -89.2,-55.63 -146.74,-55.63 -128.51,0 -232.09,104.54 -232.09,232.09 0,127.55 103.58,231.13 232.09,231.13 57.54,0 105.5,-21.1 146.74,-56.58l0 11.51c0,29.73 19.18,54.66 50.83,54.66 31.64,0 55.62,-24.93 55.62,-54.66l0 -367.32c0,-29.73 -23.98,-54.67 -55.62,-54.67zm-197.57 354.85c-66.17,0 -120.84,-52.74 -120.84,-118.92 0,-66.17 54.67,-119.88 120.84,-119.88 65.22,0 119.88,53.71 119.88,119.88 0,66.18 -54.66,118.92 -119.88,118.92zm571.6 -353.89c-43.16,0 -82.48,12.47 -117.01,34.53 -7.67,-23.02 -28.77,-39.32 -53.7,-39.32 -31.65,0 -57.55,25.89 -57.55,57.54l0 366.36c0,31.65 25.9,57.54 57.55,57.54 31.64,0 57.54,-25.89 57.54,-57.54l0 -163.04c0,-66.17 38.36,-140.98 113.17,-140.98 60.42,0 110.29,54.67 110.29,122.76l0 181.26c0,31.65 24.93,57.54 57.54,57.54 31.65,0 56.58,-25.89 56.58,-57.54l0 -181.26c0,-131.39 -100.7,-237.85 -224.41,-237.85zm702.98 -249.35c-31.65,0 -57.54,26.85 -57.54,58.5l0 224.42c-39.32,-24.93 -85.36,-40.28 -135.23,-40.28 -133.31,0 -242.64,109.33 -242.64,242.64 0,134.27 109.33,242.64 242.64,242.64 50.83,0 98.78,-15.34 137.14,-42.2 7.68,23.98 29.73,40.28 55.63,40.28 32.61,0 58.5,-25.89 58.5,-57.54l0 -609.96c0,-31.65 -25.89,-58.5 -58.5,-58.5zm-192.77 611.87c-70.01,0 -126.59,-56.58 -126.59,-126.59 0,-70.01 56.58,-126.59 126.59,-126.59 70.01,0 126.59,56.58 126.59,126.59 0,70.01 -56.58,126.59 -126.59,126.59z"/>
   <path class="fil2" d="M11365.14 7122.04c-33.56,0 -60.42,-26.86 -60.42,-58.5l0 -4.8c0,-33.57 26.86,-59.46 60.42,-59.46 31.65,0 58.5,25.89 58.5,59.46l0 4.8c0,31.64 -26.85,58.5 -58.5,58.5zm0 562.96c-33.56,0 -60.42,-26.85 -60.42,-59.46l0 -370.19c0,-32.61 26.86,-58.51 60.42,-58.51 31.65,0 58.5,25.9 58.5,58.51l0 370.19c0,32.61 -26.85,59.46 -58.5,59.46zm373.08 -478.57c-43.16,0 -82.48,12.47 -117.01,34.53 -7.67,-23.02 -28.77,-39.32 -53.7,-39.32 -31.65,0 -57.55,25.89 -57.55,57.54l0 366.36c0,31.65 25.9,57.54 57.55,57.54 31.64,0 57.54,-25.89 57.54,-57.54l0 -163.04c0,-66.17 38.36,-140.98 113.17,-140.98 60.42,0 110.29,54.67 110.29,122.76l0 181.26c0,31.65 24.93,57.54 57.54,57.54 31.65,0 56.58,-25.89 56.58,-57.54l0 -181.26c0,-131.39 -100.7,-237.85 -224.41,-237.85zm524.6 0c-43.16,0 -82.48,12.47 -117.01,34.53 -7.67,-23.02 -28.77,-39.32 -53.7,-39.32 -31.65,0 -57.55,25.89 -57.55,57.54l0 366.36c0,31.65 25.9,57.54 57.55,57.54 31.64,0 57.54,-25.89 57.54,-57.54l0 -163.04c0,-66.17 38.36,-140.98 113.17,-140.98 60.42,0 110.29,54.67 110.29,122.76l0 181.26c0,31.65 24.93,57.54 57.54,57.54 31.65,0 56.58,-25.89 56.58,-57.54l0 -181.26c0,-131.39 -100.7,-237.85 -224.41,-237.85zm527.47 476.65c-132.35,0 -240.72,-107.41 -240.72,-240.72 0,-132.35 108.37,-240.72 240.72,-240.72 132.35,0 240.72,108.37 241.68,241.68 -0.96,132.35 -109.33,239.76 -241.68,239.76zm0 -363.48c-68.09,0 -122.76,54.67 -122.76,122.76 0,68.09 54.67,122.76 122.76,122.76 68.1,0 122.76,-54.67 122.76,-122.76 0,-68.09 -54.66,-122.76 -122.76,-122.76zm526.53 363.48l-0.96 0c-21.1,0 -40.28,-12.47 -49.87,-31.65l-180.3 -359.64c-13.43,-28.77 -2.88,-62.34 25.89,-76.72 27.81,-13.43 61.38,-2.88 75.76,25.89l129.48 258.94 129.47 -252.23c14.38,-27.81 47.95,-39.32 75.76,-24.93 27.82,14.38 39.32,47.95 24.94,75.76l-180.3 352.93c-9.59,19.18 -28.77,31.65 -49.87,31.65zm703.94 -477.61c-31.65,0 -50.83,24.94 -50.83,54.67l0 4.8c-41.24,-33.57 -89.2,-55.63 -146.74,-55.63 -128.51,0 -232.09,104.54 -232.09,232.09 0,127.55 103.58,231.13 232.09,231.13 57.54,0 105.5,-21.1 146.74,-56.58l0 11.51c0,29.73 19.18,54.66 50.83,54.66 31.64,0 55.62,-24.93 55.62,-54.66l0 -367.32c0,-29.73 -23.98,-54.67 -55.62,-54.67zm-197.57 354.85c-66.17,0 -120.84,-52.74 -120.84,-118.92 0,-66.17 54.67,-119.88 120.84,-119.88 65.22,0 119.88,53.71 119.88,119.88 0,66.18 -54.66,118.92 -119.88,118.92zm541.87 6.72c-6.72,0 -15.35,0.96 -20.14,-3.84 -6.72,-5.75 -4.8,-17.26 -6.72,-24.93l0 -228.26 31.65 0c31.65,0 57.54,-25.89 57.54,-57.54 0,-31.65 -25.89,-57.54 -57.54,-57.54l-31.65 0 0 -183.18c0,-31.65 -25.89,-57.55 -57.54,-57.55 -31.65,0 -57.54,25.9 -57.54,57.55l0 183.18 -41.24 0c-31.65,0 -57.55,25.89 -57.55,57.54 0,31.65 25.9,57.54 57.55,57.54l41.24 0 0 241.68c0,29.73 13.42,64.26 32.6,86.32 22.06,24.93 52.75,38.36 84.4,43.15 8.63,0.96 16.3,0.96 24.94,0.96 31.64,0 57.54,-24.93 57.54,-57.54 0,-31.65 -25.9,-57.54 -57.54,-57.54zm194.68 -445c-33.56,0 -60.42,-26.86 -60.42,-58.5l0 -4.8c0,-33.57 26.86,-59.46 60.42,-59.46 31.65,0 58.5,25.89 58.5,59.46l0 4.8c0,31.64 -26.85,58.5 -58.5,58.5zm0 562.96c-33.56,0 -60.42,-26.85 -60.42,-59.46l0 -370.19c0,-32.61 26.86,-58.51 60.42,-58.51 31.65,0 58.5,25.9 58.5,58.51l0 370.19c0,32.61 -26.85,59.46 -58.5,59.46zm375.95 -1.92c-132.35,0 -240.72,-107.41 -240.72,-240.72 0,-132.35 108.37,-240.72 240.72,-240.72 132.35,0 240.72,108.37 241.68,241.68 -0.96,132.35 -109.33,239.76 -241.68,239.76zm0 -363.48c-68.09,0 -122.76,54.67 -122.76,122.76 0,68.09 54.67,122.76 122.76,122.76 68.1,0 122.76,-54.67 122.76,-122.76 0,-68.09 -54.66,-122.76 -122.76,-122.76zm537.08 -113.17c-43.16,0 -82.48,12.47 -117.01,34.53 -7.67,-23.02 -28.77,-39.32 -53.7,-39.32 -31.65,0 -57.55,25.89 -57.55,57.54l0 366.36c0,31.65 25.9,57.54 57.55,57.54 31.64,0 57.54,-25.89 57.54,-57.54l0 -163.04c0,-66.17 38.36,-140.98 113.17,-140.98 60.42,0 110.29,54.67 110.29,122.76l0 181.26c0,31.65 24.93,57.54 57.54,57.54 31.65,0 56.58,-25.89 56.58,-57.54l0 -181.26c0,-131.39 -100.7,-237.85 -224.41,-237.85z"/>
  </g>
 </g>
</svg>
